<?xml version="1.0" encoding="UTF-8"?>
<!DOCTYPE svg PUBLIC "-//W3C//DTD SVG 1.1//EN" "http://www.w3.org/Graphics/SVG/1.1/DTD/svg11.dtd">
<svg xmlns="http://www.w3.org/2000/svg" xmlns:xlink="http://www.w3.org/1999/xlink" version="1.1" width="180px" height="180px" viewBox="-0.5 -0.5 180 180"><defs/><g><path d="M 47.07 132.93 L 61.72 118.28" fill="none" stroke="#666666" stroke-width="20" stroke-miterlimit="10" pointer-events="stroke"/><ellipse cx="40" cy="140" rx="10" ry="10" fill="#f5f5f5" stroke="#666666" stroke-width="20" pointer-events="all"/><path d="M 132.93 132.93 L 118.28 118.28" fill="none" stroke="#666666" stroke-width="20" stroke-miterlimit="10" pointer-events="stroke"/><ellipse cx="140" cy="140" rx="10" ry="10" fill="#f5f5f5" stroke="#666666" stroke-width="20" pointer-events="all"/><path d="M 150 90 L 130 90" fill="none" stroke="#666666" stroke-width="20" stroke-miterlimit="10" pointer-events="stroke"/><ellipse cx="160" cy="90" rx="10" ry="10" fill="#f5f5f5" stroke="#666666" stroke-width="20" pointer-events="all"/><path d="M 30 90 L 50 90" fill="none" stroke="#666666" stroke-width="20" stroke-miterlimit="10" pointer-events="stroke"/><ellipse cx="20" cy="90" rx="10" ry="10" fill="#f5f5f5" stroke="#666666" stroke-width="20" pointer-events="all"/><path d="M 90 30 L 90 50" fill="none" stroke="#666666" stroke-width="20" stroke-miterlimit="10" pointer-events="stroke"/><ellipse cx="90" cy="20" rx="10" ry="10" fill="#f5f5f5" stroke="#666666" stroke-width="20" pointer-events="all"/><path d="M 132.93 47.07 L 118.28 61.72" fill="none" stroke="#666666" stroke-width="20" stroke-miterlimit="10" pointer-events="stroke"/><ellipse cx="140" cy="40" rx="10" ry="10" fill="#f5f5f5" stroke="#666666" stroke-width="20" pointer-events="all"/><path d="M 47.07 47.07 L 61.72 61.72" fill="none" stroke="#666666" stroke-width="20" stroke-miterlimit="10" pointer-events="stroke"/><ellipse cx="40" cy="40" rx="10" ry="10" fill="#f5f5f5" stroke="#666666" stroke-width="20" pointer-events="all"/><ellipse cx="90" cy="90" rx="20" ry="20" fill="#f5f5f5" stroke="#666666" stroke-width="43" pointer-events="all"/><path d="M 90 150 L 90 130" fill="none" stroke="#666666" stroke-width="20" stroke-miterlimit="10" pointer-events="stroke"/><ellipse cx="90" cy="160" rx="10" ry="10" fill="#f5f5f5" stroke="#666666" stroke-width="20" pointer-events="all"/></g></svg>