<svg width="217" height="208" viewBox="0 0 217 208" fill="none" xmlns="http://www.w3.org/2000/svg">
<path d="M92.6 164.5H109.5H133M98.3596 117.027C95.6821 112.602 94.5083 107.284 95.0725 102.134C95.6367 96.9839 97.8972 92.3801 101.404 89.2404M112.575 56.8V40M78.7794 70.7794L66.9 58.9M160.35 153.28L148.471 141.401M146.7 70.975L158.579 59.0956M64.8 153.28L76.6794 141.401M64.8 104.575H48M160.35 104.575H177.15M213 104C213 159.228 168.228 204 113 204C112.89 204 112.78 204 112.67 204H13L47.5409 179.6C26.383 161.265 13 134.195 13 104C13 48.7715 57.7715 4 113 4C168.228 4 213 48.7715 213 104ZM147.609 104.307C147.609 84.9195 131.892 69.2027 112.505 69.2027C93.1168 69.2027 77.4 84.9195 77.4 104.307C77.4 122.147 89.4333 131.772 91.0821 149.282C91.2892 151.482 93.0593 153.28 95.2685 153.28H129.741C131.95 153.28 133.72 151.482 133.927 149.282C135.576 131.772 147.609 122.147 147.609 104.307Z" stroke="#DFCC1E" stroke-width="8" stroke-linecap="round"/>
</svg>
