<?xml version="1.0" encoding="UTF-8"?>
<!DOCTYPE svg PUBLIC "-//W3C//DTD SVG 1.1//EN" "http://www.w3.org/Graphics/SVG/1.1/DTD/svg11.dtd">
<svg xmlns="http://www.w3.org/2000/svg" xmlns:xlink="http://www.w3.org/1999/xlink" version="1.1" width="174px" height="174px" viewBox="-0.5 -0.5 174 174"><defs/><g><path d="M 43.07 128.93 L 57.72 114.28" fill="none" stroke="#d6b656" stroke-width="10" stroke-miterlimit="10" pointer-events="stroke"/><ellipse cx="36" cy="136" rx="10" ry="10" fill="#fff2cc" stroke="#d6b656" stroke-width="13" pointer-events="all"/><path d="M 128.93 128.93 L 114.28 114.28" fill="none" stroke="#d6b656" stroke-width="10" stroke-miterlimit="10" pointer-events="stroke"/><ellipse cx="136" cy="136" rx="10" ry="10" fill="#fff2cc" stroke="#d6b656" stroke-width="13" pointer-events="all"/><path d="M 146 86 L 126 86" fill="none" stroke="#d6b656" stroke-width="10" stroke-miterlimit="10" pointer-events="stroke"/><ellipse cx="156" cy="86" rx="10" ry="10" fill="#fff2cc" stroke="#d6b656" stroke-width="13" pointer-events="all"/><path d="M 26 86 L 46 86" fill="none" stroke="#d6b656" stroke-width="10" stroke-miterlimit="10" pointer-events="stroke"/><ellipse cx="16" cy="86" rx="10" ry="10" fill="#fff2cc" stroke="#d6b656" stroke-width="13" pointer-events="all"/><path d="M 86 26 L 86 46" fill="none" stroke="#d6b656" stroke-width="10" stroke-miterlimit="10" pointer-events="stroke"/><ellipse cx="86" cy="16" rx="10" ry="10" fill="#fff2cc" stroke="#d6b656" stroke-width="13" pointer-events="all"/><path d="M 128.93 43.07 L 114.28 57.72" fill="none" stroke="#d6b656" stroke-width="10" stroke-miterlimit="10" pointer-events="stroke"/><ellipse cx="136" cy="36" rx="10" ry="10" fill="#fff2cc" stroke="#d6b656" stroke-width="13" pointer-events="all"/><path d="M 43.07 43.07 L 57.72 57.72" fill="none" stroke="#d6b656" stroke-width="10" stroke-miterlimit="10" pointer-events="stroke"/><ellipse cx="36" cy="36" rx="10" ry="10" fill="#fff2cc" stroke="#d6b656" stroke-width="13" pointer-events="all"/><rect x="81" y="126" width="10" height="40" rx="1.5" ry="1.5" fill="#dae8fc" stroke="#6c8ebf" stroke-width="13" pointer-events="all"/><ellipse cx="86" cy="86" rx="20" ry="20" fill="#dae8fc" stroke="#6c8ebf" stroke-width="13" pointer-events="all"/></g></svg>